<svg width="1200" height="630" viewBox="0 0 1200 630" fill="none" xmlns="http://www.w3.org/2000/svg">
  <rect width="1200" height="630" fill="#114C5A"/>
  <rect x="0" y="0" width="1200" height="630" fill="url(#grad)" opacity="0.3"/>
  <defs>
    <radialGradient id="grad" cx="50%" cy="50%" r="70%">
      <stop offset="0%" stop-color="#FFC801"/>
      <stop offset="100%" stop-color="#114C5A"/>
    </radialGradient>
  </defs>
  <rect x="60" y="60" width="80" height="80" rx="16" fill="none" stroke="#FFC801" stroke-width="3"/>
  <path d="M85 90h30a12 12 0 0 1 0 24h-12M85 90v48M85 114h24a12 12 0 0 1 12 12v12" stroke="#FFC801" stroke-width="6" stroke-linecap="round" stroke-linejoin="round" fill="none"/>
  <path d="M121 150l18-18m0 0h-12m12 0v12" stroke="#FF9932" stroke-width="5" stroke-linecap="round" stroke-linejoin="round"/>
  <text x="160" y="108" fill="#F1F6F4" font-size="48" font-weight="800" font-family="JetBrains Mono">EVOLVE</text>
  <text x="160" y="130" fill="#D9E8E2" font-size="14" font-family="Inter">AI-Powered Business Intelligence</text>
  <text x="60" y="340" fill="#F1F6F4" font-size="56" font-weight="800" font-family="JetBrains Mono">Your data. Smarter decisions.</text>
  <text x="60" y="400" fill="#D9E8E2" font-size="24" font-family="Inter">Real-time analytics, AI insights, and everything you need</text>
  <text x="60" y="435" fill="#D9E8E2" font-size="24" font-family="Inter">to make smarter decisions — all in one place.</text>
  <rect x="60" y="470" width="200" height="50" rx="25" fill="#FFC801"/>
  <text x="160" y="501" fill="#172B36" font-size="16" font-weight="700" font-family="JetBrains Mono" text-anchor="middle">Start Free Trial</text>
  <rect x="290" y="470" width="180" height="50" rx="25" fill="none" stroke="#D9E8E2" stroke-width="2"/>
  <text x="380" y="501" fill="#D9E8E2" font-size="16" font-weight="600" font-family="JetBrains Mono" text-anchor="middle">Talk to Sales</text>
  <rect x="870" y="100" width="270" height="400" rx="20" fill="white" opacity="0.05"/>
  <rect x="900" y="130" width="210" height="40" rx="8" fill="#FFC801"/>
  <text x="1005" y="155" fill="#172B36" font-size="14" font-weight="700" font-family="JetBrains Mono" text-anchor="middle">Dashboard</text>
  <rect x="900" y="190" width="210" height="100" rx="10" fill="white" opacity="0.08"/>
  <circle cx="920" cy="210" r="4" fill="#FFC801"/>
  <text x="935" y="214" fill="#F1F6F4" font-size="11" font-family="Inter" font-weight="600">Revenue</text>
  <text x="920" y="235" fill="#F1F6F4" font-size="20" font-weight="800" font-family="JetBrains Mono">$384.2k</text>
  <text x="920" y="255" fill="#FF9932" font-size="10" font-family="Inter">↑ 12.5% this month</text>
  <rect x="900" y="305" width="210" height="170" rx="10" fill="white" opacity="0.08"/>
  <text x="920" y="330" fill="#F1F6F4" font-size="11" font-weight="700" font-family="JetBrains Mono">Revenue Overview</text>
  <polyline points="920,450 950,430 980,440 1010,410 1040,390 1070,380 1095,370" stroke="#FFC801" stroke-width="3" fill="none" stroke-linecap="round"/>
</svg>
